<svg width="392" height="861" viewBox="0 0 392 861" fill="none" xmlns="http://www.w3.org/2000/svg">
<rect width="390" height="861" fill="white"/>
<path opacity="0.3" fill-rule="evenodd" clip-rule="evenodd" d="M2 819.325L11 804.829C21 790.333 39 761.342 58 757.718C76 755.906 95 775.838 113 779.462C132 783.085 151 768.59 169 761.342C188 755.906 206 755.906 225 764.966C243 775.838 262 797.581 281 797.581C299 797.581 318 775.838 336 748.658C355 719.667 373 685.239 383 667.12L392 649V861H383C373 861 355 861 336 861C318 861 299 861 281 861C262 861 243 861 225 861C206 861 188 861 169 861C151 861 132 861 113 861C95 861 76 861 58 861C39 861 21 861 11 861H2V819.325Z" fill="#0099FF"/>
</svg>
